<?xml version="1.0" encoding="UTF-8" standalone="no"?><svg xmlns="http://www.w3.org/2000/svg" xmlns:xlink="http://www.w3.org/1999/xlink" clip-rule="evenodd" stroke-miterlimit="4.00" viewBox="0 0 1024 768"><desc>SVG generated by Keynote</desc><defs></defs><g transform="matrix(1.00, 0.00, -0.00, -1.00, 0.0, 768.0)"><path d="M 0.0 768.0 L 1024.0 768.0 L 1024.0 0.0 L 0.0 0.0 Z M 0.0 768.0 " fill="#FEFFFF"></path><path d="M 0.0 0.0 L 112.0 0.0 " fill="none" stroke="#9A9A9A" stroke-width="1.00" transform="matrix(0.00, -1.00, -1.00, 0.00, 594.0, 140.0)"></path><text xml:space="preserve" font-family="HelveticaNeue-Light" font-size="45.0" fill="#000000" transform="matrix(1.00, 0.00, -0.00, -1.00, 195.3, 70.9)">R</text><text xml:space="preserve" font-family="HelveticaNeue-Light" font-size="45.0" fill="#000000" transform="matrix(1.00, 0.00, -0.00, -1.00, 225.4, 70.9)">o</text><text xml:space="preserve" font-family="HelveticaNeue-Light" font-size="45.0" fill="#000000" transform="matrix(1.00, 0.00, -0.00, -1.00, 250.4, 70.9)">l</text><text xml:space="preserve" font-family="HelveticaNeue-Light" font-size="45.0" fill="#000000" transform="matrix(1.00, 0.00, -0.00, -1.00, 258.7, 70.9)">e</text><text xml:space="preserve" font-family="HelveticaNeue-Light" font-size="45.0" fill="#000000" transform="matrix(1.00, 0.00, -0.00, -1.00, 282.1, 70.9)"> </text><text xml:space="preserve" font-family="HelveticaNeue-Light" font-size="45.0" fill="#000000" transform="matrix(1.00, 0.00, -0.00, -1.00, 294.6, 70.9)">o</text><text xml:space="preserve" font-family="HelveticaNeue-Light" font-size="45.0" fill="#000000" transform="matrix(1.00, 0.00, -0.00, -1.00, 319.6, 70.9)">f</text><text xml:space="preserve" font-family="HelveticaNeue-Light" font-size="45.0" fill="#000000" transform="matrix(1.00, 0.00, -0.00, -1.00, 331.2, 70.9)"> </text><text xml:space="preserve" font-family="HelveticaNeue-Light" font-size="45.0" fill="#000000" transform="matrix(1.00, 0.00, -0.00, -1.00, 343.8, 70.9)">B</text><text xml:space="preserve" font-family="HelveticaNeue-Light" font-size="45.0" fill="#000000" transform="matrix(1.00, 0.00, -0.00, -1.00, 373.8, 70.9)">a</text><text xml:space="preserve" font-family="HelveticaNeue-Light" font-size="45.0" fill="#000000" transform="matrix(1.00, 0.00, -0.00, -1.00, 397.1, 70.9)">b</text><text xml:space="preserve" font-family="HelveticaNeue-Light" font-size="45.0" fill="#000000" transform="matrix(1.00, 0.00, -0.00, -1.00, 423.0, 70.9)">e</text><text xml:space="preserve" font-family="HelveticaNeue-Light" font-size="45.0" fill="#000000" transform="matrix(1.00, 0.00, -0.00, -1.00, 446.3, 70.9)">l</text><text xml:space="preserve" font-family="HelveticaNeue-Light" font-size="45.0" fill="#000000" transform="matrix(1.00, 0.00, -0.00, -1.00, 454.6, 70.9)"> </text><text xml:space="preserve" font-family="HelveticaNeue-Light" font-size="45.0" fill="#000000" transform="matrix(1.00, 0.00, -0.00, -1.00, 467.1, 70.9)">i</text><text xml:space="preserve" font-family="HelveticaNeue-Light" font-size="45.0" fill="#000000" transform="matrix(1.00, 0.00, -0.00, -1.00, 475.5, 70.9)">n</text><text xml:space="preserve" font-family="HelveticaNeue-Light" font-size="45.0" fill="#000000" transform="matrix(1.00, 0.00, -0.00, -1.00, 499.6, 70.9)"> </text><text xml:space="preserve" font-family="HelveticaNeue-Light" font-size="45.0" fill="#000000" transform="matrix(1.00, 0.00, -0.00, -1.00, 512.1, 70.9)">J</text><text xml:space="preserve" font-family="HelveticaNeue-Light" font-size="45.0" fill="#000000" transform="matrix(1.00, 0.00, -0.00, -1.00, 534.6, 70.9)">S</text><text xml:space="preserve" font-family="HelveticaNeue" font-size="26.0" fill="#747373" transform="matrix(1.00, 0.00, -0.00, -1.00, 622.0, 71.0)">H</text><text xml:space="preserve" font-family="HelveticaNeue" font-size="26.0" fill="#747373" transform="matrix(1.00, 0.00, -0.00, -1.00, 640.8, 71.0)">e</text><text xml:space="preserve" font-family="HelveticaNeue" font-size="26.0" fill="#747373" transform="matrix(1.00, 0.00, -0.00, -1.00, 654.7, 71.0)">n</text><text xml:space="preserve" font-family="HelveticaNeue" font-size="26.0" fill="#747373" transform="matrix(1.00, 0.00, -0.00, -1.00, 669.2, 71.0)">r</text><text xml:space="preserve" font-family="HelveticaNeue" font-size="26.0" fill="#747373" transform="matrix(1.00, 0.00, -0.00, -1.00, 677.8, 71.0)">y</text><text xml:space="preserve" font-family="HelveticaNeue" font-size="26.0" fill="#747373" transform="matrix(1.00, 0.00, -0.00, -1.00, 690.8, 71.0)"> </text><text xml:space="preserve" font-family="HelveticaNeue" font-size="26.0" fill="#747373" transform="matrix(1.00, 0.00, -0.00, -1.00, 698.1, 71.0)">Z</text><text xml:space="preserve" font-family="HelveticaNeue" font-size="26.0" fill="#747373" transform="matrix(1.00, 0.00, -0.00, -1.00, 714.0, 71.0)">h</text><text xml:space="preserve" font-family="HelveticaNeue" font-size="26.0" fill="#747373" transform="matrix(1.00, 0.00, -0.00, -1.00, 728.4, 71.0)">u</text><image xlink:href="1C6B553862754624B845EF5E40A7660D.png" width="960.00" height="476.00" transform="matrix(1.07, 0.00, -0.00, -1.07, 0.0, 665.0)"></image></g></svg>